<?xml version="1.0" encoding="UTF-8"?>
<svg xmlns="http://www.w3.org/2000/svg" xmlns:xlink="http://www.w3.org/1999/xlink" width="1080px" height="540px" viewBox="0 0 1080 540" version="1.1">
<g id="surface1">
<path style=" stroke:none;fill-rule:nonzero;fill:rgb(0%,0%,0%);fill-opacity:1;" d="M 438.910156 278.523438 C 467.160156 259.597656 503.699219 268.898438 519.804688 298.566406 C 525.882812 309.761719 529.109375 321.972656 533.828125 335.132812 C 537.875 323.683594 541.476562 313.351562 545.183594 303.058594 C 547.847656 295.667969 551.082031 293.855469 558.792969 294.613281 C 563.164062 295.046875 565.800781 297.0625 567.277344 301.230469 C 570.496094 310.332031 573.964844 319.34375 577.355469 328.382812 C 578.074219 330.308594 578.894531 332.199219 579.765625 334.34375 C 582.757812 329.054688 606.039062 264.46875 606.460938 260.269531 C 600.449219 257.753906 593.894531 257.484375 587.535156 256.777344 C 558.183594 253.523438 528.722656 252.148438 499.183594 252.386719 C 481.082031 252.53125 462.980469 252.414062 444.878906 252.414062 C 436.492188 252.414062 435.421875 252.613281 434.820312 260.917969 C 433.910156 273.449219 422.171875 277.878906 414.355469 278.261719 C 414.457031 271.035156 416.496094 264.121094 417.476562 257.089844 C 418.273438 251.363281 419.582031 245.710938 420.671875 240.027344 C 421.441406 236.007812 423.765625 233.90625 427.976562 233.960938 C 462.761719 234.433594 497.546875 233.457031 532.335938 234.621094 C 559.574219 235.53125 586.644531 237.640625 613.507812 242.257812 C 617.65625 242.96875 621.792969 243.773438 625.9375 244.519531 C 629.894531 245.234375 631.34375 247.433594 629.988281 251.308594 C 627.667969 257.933594 625.40625 264.585938 622.992188 271.179688 C 612.683594 299.378906 602.242188 327.535156 592.054688 355.777344 C 590.085938 361.230469 587.152344 364.382812 581.027344 364.207031 C 574.347656 364.015625 572.019531 362.5 569.347656 355.726562 C 565.230469 345.304688 561.101562 334.886719 556.542969 323.367188 C 552.195312 335.082031 548.085938 345.625 544.394531 356.3125 C 542.429688 362.003906 538.890625 364.308594 532.960938 364.25 C 527.601562 364.195312 524.644531 361.8125 522.644531 357.007812 C 516.492188 342.25 512.03125 326.851562 505.464844 312.253906 C 498.488281 296.753906 487.074219 287.535156 469.703125 287.308594 C 453.347656 287.097656 438.980469 299.324219 436.003906 315.285156 C 432.757812 332.679688 441.160156 348.796875 456.847656 355.265625 C 472.21875 361.601562 488.652344 356.1875 498.269531 341.628906 C 499.125 340.335938 499.695312 338.777344 502.023438 337.878906 C 506.097656 344.023438 507.980469 350.921875 508.289062 358.265625 C 508.371094 360.234375 506.386719 361.539062 505.027344 362.898438 C 485.085938 382.867188 448.75 380.617188 429.617188 358.234375 C 408.5625 333.609375 412.574219 298.117188 438.910156 278.523438 Z M 438.910156 278.523438 "/>
<path style=" stroke:none;fill-rule:nonzero;fill:rgb(0%,0%,0%);fill-opacity:1;" d="M 746.707031 333.707031 C 747.144531 335.664062 747.535156 337.210938 747.695312 338.777344 C 748.496094 346.585938 746.785156 348.398438 738.863281 348.492188 C 733.066406 348.5625 727.273438 348.796875 721.480469 348.886719 C 718.085938 348.9375 715.953125 350.644531 714.515625 353.597656 C 712.59375 357.546875 710.625 361.480469 707.644531 364.792969 C 691.667969 382.527344 662.476562 378.519531 652.625 356.785156 C 649.8125 350.574219 646.378906 348.429688 639.871094 348.867188 C 632.347656 349.375 624.761719 348.980469 617.207031 348.976562 C 614.40625 348.972656 611.628906 348.839844 608.375 347.8125 C 609.265625 342.640625 610.886719 337.925781 613.21875 333.46875 C 614.167969 331.652344 616.035156 330.863281 618.070312 330.71875 C 620.871094 330.519531 623.675781 330.242188 626.480469 330.238281 C 655.65625 330.195312 684.832031 330.210938 714.007812 330.1875 C 721.191406 330.179688 722.03125 329.351562 720.945312 322.21875 C 719.027344 309.664062 713.5625 299.355469 702.296875 292.484375 C 686.207031 282.671875 668.265625 277.542969 650.695312 271.441406 C 650.367188 271.328125 650.015625 271.273438 649.679688 271.164062 C 635.214844 266.421875 637.570312 269.316406 642.117188 253.839844 C 642.910156 251.148438 644.636719 250.300781 647.367188 251.078125 C 670.753906 257.734375 693.6875 265.511719 714.191406 279.019531 C 728.898438 288.710938 736.9375 302.882812 739.246094 319.964844 C 740.046875 325.871094 742.050781 329.984375 746.707031 333.707031 M 689.933594 356.328125 C 692.507812 354.890625 694.988281 353.382812 695.296875 349.449219 C 686.835938 348.804688 678.820312 348.734375 670.632812 349.578125 C 673.09375 357.464844 679.761719 359.820312 689.933594 356.328125 Z M 689.933594 356.328125 "/>
</g>
</svg>
