<svg version="1.1" xmlns="http://www.w3.org/2000/svg" xmlns:xlink="http://www.w3.org/1999/xlink" x="0px" y="0px"
	 width="100%" viewBox="0 0 1024 512" enable-background="new 0 0 1024 512" xml:space="preserve">
<path fill="#0f172a" opacity="1.000000" stroke="none" 
	d="
M416.153107,264.082764 
	C442.938354,246.135864 477.581512,254.955719 492.851929,283.085663 
	C498.613617,293.699371 501.673553,305.279327 506.148132,317.754669 
	C509.985657,306.899536 513.399414,297.104034 516.915161,287.345306 
	C519.439392,280.338745 522.509094,278.617096 529.820312,279.338593 
	C533.964172,279.747528 536.464417,281.657684 537.862610,285.611969 
	C540.913696,294.240967 544.203308,302.785828 547.416931,311.357025 
	C548.101135,313.181915 548.877136,314.972351 549.703674,317.007233 
	C552.541321,311.992493 574.613037,250.756577 575.015564,246.773682 
	C569.314697,244.389999 563.100891,244.133392 557.070374,243.464417 
	C529.239136,240.377029 501.307098,239.075867 473.298584,239.299316 
	C456.136993,239.436249 438.973419,239.325912 421.810730,239.325806 
	C413.860870,239.325760 412.844513,239.516541 412.273132,247.387192 
	C411.410431,259.271393 400.283020,263.471100 392.869446,263.832825 
	C392.968079,256.980560 394.899231,250.427109 395.829559,243.758820 
	C396.586823,238.330811 397.825409,232.969772 398.858246,227.580490 
	C399.588745,223.768661 401.792572,221.776703 405.785065,221.830658 
	C438.765564,222.276520 471.747803,221.351562 504.734650,222.454147 
	C530.559937,223.317337 556.226013,225.318573 581.694702,229.694962 
	C585.629883,230.371170 589.550415,231.132355 593.480103,231.841370 
	C597.231689,232.518250 598.608643,234.605484 597.322388,238.276337 
	C595.120544,244.560303 592.976807,250.865677 590.690186,257.118744 
	C580.912964,283.856262 571.015991,310.550293 561.354065,337.329254 
	C559.488220,342.500641 556.709229,345.489960 550.901367,345.322937 
	C544.567810,345.140778 542.359802,343.703033 539.824463,337.281372 
	C535.923096,327.399597 532.007812,317.523254 527.684509,306.598633 
	C523.562012,317.707031 519.666809,327.704285 516.166138,337.837830 
	C514.302734,343.231903 510.947479,345.419708 505.324707,345.362762 
	C500.245514,345.311279 497.442383,343.053650 495.542908,338.495605 
	C489.711884,324.503052 485.483154,309.905365 479.255249,296.063843 
	C472.642120,281.366089 461.817596,272.625153 445.347076,272.410980 
	C429.840942,272.209381 416.218323,283.803375 413.394531,298.936523 
	C410.316895,315.430145 418.285156,330.712067 433.160339,336.844452 
	C447.733124,342.852173 463.313629,337.719757 472.434570,323.916626 
	C473.245483,322.689392 473.786041,321.209412 475.994385,320.357635 
	C479.856262,326.184998 481.639496,332.727478 481.931976,339.689972 
	C482.010406,341.556793 480.130920,342.790924 478.842255,344.081116 
	C459.932709,363.013184 425.481995,360.879700 407.340668,339.660461 
	C387.378296,316.311249 391.181152,282.660126 416.153107,264.082764 
z"/>
<path fill="#0f172a" opacity="1.000000" stroke="none" 
	d="
M707.990173,316.404907 
	C708.405518,318.259949 708.774902,319.724091 708.927063,321.210510 
	C709.684814,328.613434 708.061829,330.332733 700.551025,330.423096 
	C695.056641,330.489197 689.564331,330.711334 684.070068,330.795593 
	C680.850830,330.845001 678.829224,332.462097 677.465637,335.264038 
	C675.643555,339.008209 673.778809,342.738770 670.952148,345.876434 
	C655.802795,362.692719 628.126648,358.892090 618.786316,338.285797 
	C616.117188,332.397125 612.864746,330.362091 606.692261,330.778687 
	C599.559265,331.260101 592.368408,330.884979 585.202637,330.880280 
	C582.549500,330.878540 579.914917,330.750244 576.831421,329.775940 
	C577.673523,324.872742 579.209290,320.402740 581.421082,316.176331 
	C582.322021,314.454834 584.091309,313.709259 586.021729,313.570526 
	C588.677368,313.379669 591.337280,313.118378 593.995605,313.114502 
	C621.658752,313.074188 649.321899,313.088715 676.985046,313.065521 
	C683.794983,313.059784 684.594177,312.273407 683.561890,305.510223 
	C681.745361,293.608215 676.563782,283.833862 665.880920,277.317810 
	C650.626587,268.013397 633.615967,263.152954 616.957336,257.368439 
	C616.643372,257.259399 616.310181,257.206207 615.993958,257.102539 
	C602.277954,252.606171 604.510132,255.353210 608.823425,240.678680 
	C609.573242,238.127762 611.211914,237.320923 613.800964,238.058090 
	C635.975342,244.371765 657.719482,251.743744 677.157715,264.550903 
	C691.104614,273.739990 698.726257,287.177734 700.915405,303.372864 
	C701.672363,308.972412 703.573853,312.872345 707.990173,316.404907 
M654.158447,337.851593 
	C656.598328,336.489319 658.950500,335.059845 659.246277,331.328796 
	C651.223877,330.719208 643.622620,330.651428 635.858948,331.451080 
	C638.192566,338.930542 644.514954,341.162201 654.158447,337.851593 
z"/>
</svg>
